<?xml version="1.0" standalone="no"?>
<!DOCTYPE svg PUBLIC "-//W3C//DTD SVG 20010904//EN"
 "http://www.w3.org/TR/2001/REC-SVG-20010904/DTD/svg10.dtd">
<svg version="1.0" xmlns="http://www.w3.org/2000/svg"
 width="665.000000pt" height="665.000000pt" viewBox="0 0 665.000000 665.000000"
 preserveAspectRatio="xMidYMid meet">
<metadata>
Created by potrace 1.11, written by Peter Selinger 2001-2013
</metadata>
<g transform="translate(0.000000,665.000000) scale(0.100000,-0.100000)"
fill="#000000" stroke="none">
<path d="M3521 6557 c16 -19 64 -33 54 -16 -4 5 -11 7 -16 4 -5 -4 -9 -1 -9 6
0 7 -3 9 -7 6 -3 -4 -13 -1 -22 5 -15 11 -15 10 0 -5z"/>
<path d="M3085 6540 c-4 -11 -11 -18 -16 -14 -5 3 -6 10 -3 16 4 7 2 8 -5 4
-6 -4 -8 -12 -5 -18 4 -6 2 -8 -4 -4 -6 3 -16 -2 -22 -11 -10 -16 -11 -16 -6
-1 3 10 1 20 -4 23 -6 4 -10 -1 -10 -9 0 -23 -15 -27 -36 -10 -18 14 -18 15 3
4 18 -8 21 -8 17 3 -2 7 -15 13 -29 13 -19 0 -22 -3 -14 -17 7 -15 5 -17 -10
-14 -11 2 -30 9 -42 15 -17 10 -20 9 -14 -1 6 -9 3 -10 -10 -5 -16 6 -16 4 -4
-11 10 -12 10 -15 1 -9 -7 4 -20 2 -28 -5 -8 -7 -14 -8 -12 -3 2 5 -7 19 -19
32 -13 12 -23 18 -23 13 0 -5 7 -14 15 -21 8 -7 15 -18 15 -24 0 -6 -5 -4 -10
4 -5 8 -10 11 -10 6 0 -5 -8 -2 -18 7 -15 14 -19 15 -19 2 0 -8 4 -12 8 -10 4
3 10 -2 13 -11 6 -15 3 -15 -20 1 -15 9 -23 12 -20 6 4 -6 2 -11 -3 -11 -6 0
-11 6 -11 13 0 8 -3 7 -10 -3 -6 -9 -5 -17 3 -22 7 -5 -3 -6 -21 -3 -24 4 -32
2 -26 -6 4 -7 3 -9 -4 -5 -6 3 -9 15 -7 26 2 11 -1 20 -7 20 -5 0 -8 -7 -5
-15 8 -20 -9 -28 -32 -15 -14 7 -22 7 -26 0 -4 -6 -16 -8 -28 -4 -20 6 -20 6
-4 -10 21 -21 21 -23 2 -23 -8 0 -12 4 -9 9 3 4 1 8 -4 8 -17 0 -22 -13 -9
-29 10 -14 10 -14 -4 -3 -10 7 -16 20 -14 30 1 9 0 11 -2 4 -3 -7 -9 -9 -15
-6 -7 5 -8 2 -3 -6 6 -10 4 -12 -9 -7 -9 4 -15 3 -12 -2 5 -8 -22 -25 -33 -21
-2 1 -7 -4 -11 -10 -5 -8 -9 -7 -13 4 -4 9 -1 15 5 13 6 -1 13 5 15 13 4 12 3
12 -5 2 -5 -8 -12 -13 -16 -13 -22 3 -36 0 -36 -10 0 -5 4 -8 9 -5 11 7 9 -21
-2 -29 -4 -3 -5 -2 -2 2 11 15 -17 32 -40 23 -13 -5 -27 -5 -34 1 -8 6 -8 5
-1 -3 16 -20 12 -26 -16 -20 -21 4 -25 2 -19 -9 7 -11 5 -11 -10 1 -17 13 -18
13 -13 0 3 -8 2 -24 -3 -35 -7 -18 -8 -18 -8 -2 -1 10 -5 15 -11 12 -5 -3 -10
-1 -10 5 0 7 7 9 18 5 13 -5 14 -3 5 6 -7 7 -17 8 -25 3 -7 -5 -16 -9 -20 -9
-3 0 -10 -4 -15 -8 -4 -5 -2 -7 6 -5 7 2 16 -4 18 -12 4 -13 3 -13 -6 0 -6 8
-11 11 -11 5 0 -5 -7 -2 -14 8 -12 16 -14 16 -20 2 -3 -9 -10 -13 -16 -10 -5
3 -7 0 -4 -8 3 -8 0 -18 -7 -23 -8 -5 -10 -3 -4 7 8 12 6 12 -8 1 -9 -8 -22
-10 -28 -6 -9 5 -11 1 -7 -14 4 -15 2 -19 -8 -15 -8 3 -12 8 -10 12 3 4 -6 7
-20 7 -13 0 -24 -4 -24 -9 0 -5 7 -6 16 -3 8 3 13 2 9 -3 -3 -5 1 -12 7 -15 7
-3 2 -3 -11 0 -15 4 -21 2 -17 -4 3 -6 1 -14 -5 -18 -8 -4 -9 -3 -5 4 4 7 2
12 -4 12 -6 0 -8 5 -5 11 4 6 -2 5 -13 -2 -16 -10 -18 -16 -10 -26 8 -11 7
-12 -6 -7 -10 4 -25 -1 -38 -12 -21 -19 -21 -19 -9 3 17 33 13 38 -9 12 -12
-16 -19 -19 -20 -10 0 8 -3 12 -6 9 -3 -4 -1 -15 5 -25 8 -16 7 -19 -10 -18
-11 1 -25 8 -30 16 -12 19 -11 2 1 -21 9 -16 8 -18 -6 -13 -13 5 -15 3 -9 -7
5 -8 4 -11 -3 -6 -6 4 -10 12 -8 19 1 7 1 9 -1 5 -2 -4 -12 -4 -21 0 -15 5
-15 4 1 -12 23 -23 22 -29 -3 -16 -11 6 -20 7 -20 3 0 -4 -5 -1 -11 7 -8 12
-9 11 -4 -6 3 -14 -1 -26 -12 -35 -16 -12 -17 -12 -6 1 10 13 9 16 -6 16 -12
0 -17 -6 -14 -16 3 -10 -6 -21 -22 -28 -16 -8 -23 -17 -19 -25 5 -9 3 -9 -7 1
-12 11 -12 14 1 23 13 9 13 10 0 6 -8 -2 -24 0 -35 5 -20 9 -20 9 -1 -6 23
-18 19 -25 -16 -28 -19 -2 -24 -7 -22 -25 1 -13 -3 -26 -8 -30 -7 -3 -8 -1 -4
5 5 8 -5 11 -33 9 -21 -1 -37 -5 -34 -10 2 -4 9 -5 14 -2 5 4 9 -1 9 -9 0 -8
-5 -18 -12 -22 -7 -4 -8 -3 -4 4 13 22 -6 12 -25 -13 -12 -14 -26 -22 -34 -18
-10 3 -13 1 -10 -9 4 -9 -2 -14 -16 -15 -18 -2 -19 0 -8 15 8 9 1 6 -14 -7
-15 -14 -27 -31 -27 -40 0 -11 -3 -10 -15 5 -13 17 -14 16 -5 -14 8 -29 7 -32
-5 -22 -8 7 -13 16 -10 19 2 4 -2 8 -10 8 -12 0 -12 -3 -2 -16 10 -12 9 -14
-7 -8 -17 7 -17 6 -5 -10 9 -11 10 -14 2 -9 -8 4 -13 2 -13 -5 0 -6 -8 -9 -19
-6 -15 4 -18 0 -16 -19 2 -21 0 -22 -13 -12 -13 11 -15 10 -9 -4 4 -12 0 -21
-14 -28 -11 -6 -17 -15 -14 -21 4 -5 1 -8 -7 -7 -7 2 -12 -3 -10 -10 1 -8 -2
-11 -8 -7 -6 3 -7 11 -4 17 4 6 -2 6 -15 -1 -11 -7 -21 -14 -21 -17 0 -3 4 -3
8 0 5 3 9 -1 9 -8 0 -8 -8 -11 -18 -9 -11 3 -16 11 -12 21 4 14 3 15 -5 2 -8
-10 -8 -18 0 -27 13 -17 -4 -17 -22 0 -11 9 -11 8 0 -7 14 -18 13 -18 -10 -13
-14 4 -19 4 -12 1 15 -7 16 -34 1 -34 -5 0 -8 -4 -5 -9 3 -4 -6 -6 -19 -3 -15
2 -25 0 -25 -7 0 -7 4 -10 8 -7 5 3 9 -1 9 -8 0 -8 -7 -12 -15 -8 -10 3 -13 1
-8 -6 3 -6 1 -14 -5 -18 -8 -4 -9 -3 -5 4 4 7 2 12 -4 12 -6 0 -8 5 -4 12 4 7
3 8 -4 4 -6 -4 -9 -13 -5 -21 3 -9 -1 -15 -11 -15 -18 0 -21 -11 -6 -26 6 -6
3 -10 -10 -11 -13 -1 -18 3 -14 10 4 7 -2 4 -12 -6 -10 -10 -19 -25 -19 -35 0
-10 -7 -16 -18 -16 -22 2 -22 -5 1 -22 16 -13 16 -14 -2 -7 -15 5 -17 3 -12
-8 4 -8 0 -5 -10 6 -16 20 -16 20 -11 -2 5 -22 -7 -30 -38 -23 -5 1 -7 -1 -3
-5 3 -4 -6 -19 -20 -33 -31 -31 -37 -49 -16 -49 8 0 13 6 10 13 -2 6 2 20 9
31 8 10 15 13 15 7 0 -6 -3 -14 -7 -18 -4 -4 -8 -13 -8 -19 0 -7 -3 -12 -6
-12 -3 0 -14 -7 -24 -15 -11 -8 -16 -10 -12 -4 3 6 0 11 -7 11 -8 0 -12 -7 -9
-15 5 -12 2 -12 -18 -3 -22 11 -23 11 -5 -3 10 -9 22 -13 27 -11 4 3 10 2 13
-3 3 -5 0 -9 -7 -9 -7 0 -21 -4 -31 -9 -15 -5 -17 -4 -11 6 5 8 4 11 -3 6 -17
-10 -3 -36 16 -29 11 4 10 0 -4 -11 -12 -8 -25 -27 -28 -42 -4 -14 -9 -24 -12
-22 -2 3 0 18 6 34 10 28 9 28 -6 9 -8 -11 -20 -19 -26 -17 -7 2 -6 -3 2 -12
8 -11 9 -16 1 -16 -6 0 -11 -7 -11 -15 0 -8 -4 -15 -9 -15 -6 0 -8 9 -6 20 2
11 0 18 -5 15 -10 -6 -8 -24 4 -44 6 -9 3 -17 -8 -23 -9 -5 -13 -14 -10 -20 4
-7 2 -8 -5 -4 -6 4 -8 12 -5 18 5 7 2 8 -5 4 -7 -5 -10 -10 -7 -13 10 -10 -16
-45 -29 -39 -9 3 -12 0 -8 -10 3 -7 9 -14 14 -14 5 0 0 -9 -11 -20 -12 -12
-26 -18 -32 -14 -7 4 -8 3 -4 -4 4 -7 3 -12 -2 -12 -5 0 -8 -11 -7 -24 2 -14
-3 -27 -11 -30 -9 -3 -12 -1 -9 4 3 6 4 10 1 10 -3 0 -10 -9 -16 -20 -9 -17
-8 -19 7 -14 15 5 16 4 3 -5 -8 -6 -11 -11 -6 -11 5 0 0 -10 -12 -22 -11 -13
-21 -25 -21 -28 0 -17 -15 -39 -23 -34 -5 3 -18 -2 -29 -11 -18 -17 -18 -19
-1 -32 9 -8 11 -11 3 -7 -10 5 -12 3 -7 -5 5 -7 15 -10 23 -7 8 3 11 1 8 -4
-4 -6 -14 -9 -23 -8 -10 2 -17 -4 -17 -12 0 -8 -4 -21 -8 -27 -5 -7 -6 -17 -3
-21 3 -5 -1 -9 -9 -9 -8 0 -11 5 -8 10 4 6 1 7 -6 3 -9 -6 -8 -13 6 -29 9 -12
11 -16 3 -9 -20 17 -31 15 -23 -5 5 -12 3 -14 -8 -8 -11 7 -11 5 1 -10 14 -17
13 -18 -2 -13 -13 5 -15 1 -13 -20 1 -15 -3 -36 -11 -46 -11 -15 -11 -23 -1
-35 6 -9 1 -7 -13 4 l-24 20 16 -26 c13 -20 14 -26 3 -26 -8 0 -12 4 -9 8 2 4
1 10 -4 13 -9 5 -12 -11 -12 -56 0 -30 -9 -35 -29 -15 -11 9 -10 7 0 -13 8
-14 19 -28 24 -32 7 -5 6 -8 0 -8 -6 0 -15 4 -21 10 -16 16 -10 -36 7 -57 13
-17 13 -17 -5 -3 -18 14 -19 13 -14 -6 3 -13 0 -21 -7 -21 -7 0 -11 6 -8 14 3
7 3 13 0 13 -14 0 -14 -31 0 -45 14 -14 13 -15 -13 -11 -26 5 -27 4 -12 -8 21
-16 24 -27 4 -20 -18 7 -30 -12 -15 -22 8 -5 9 -3 4 6 -5 9 -4 11 4 6 16 -10
3 -29 -16 -22 -8 3 -11 1 -8 -4 3 -6 0 -10 -7 -10 -10 0 -10 -2 1 -9 11 -7 10
-11 -5 -21 -16 -10 -16 -11 -2 -6 10 3 18 1 18 -5 0 -6 5 -7 12 -3 7 4 8 3 4
-5 -4 -6 -12 -8 -18 -5 -7 5 -9 -2 -6 -20 3 -14 1 -29 -5 -33 -6 -3 -7 -1 -3
5 5 8 2 10 -8 6 -9 -3 -16 -10 -16 -16 0 -5 4 -6 10 -3 5 3 10 1 10 -5 0 -6 5
-8 12 -4 7 5 8 3 4 -5 -5 -7 -14 -10 -21 -7 -8 3 -19 -1 -25 -9 -10 -11 -8
-13 7 -11 13 3 19 -2 21 -17 1 -18 -1 -19 -9 -7 -7 11 -9 4 -7 -27 1 -23 -2
-46 -7 -50 -4 -4 -5 -2 -1 5 4 6 2 12 -4 12 -6 0 -8 5 -4 12 4 6 3 8 -4 5 -5
-4 -8 -16 -5 -27 3 -11 -1 -28 -8 -37 -8 -9 -9 -14 -4 -11 6 4 15 -4 21 -17
11 -23 11 -24 -12 -8 -22 14 -24 14 -18 0 3 -8 12 -18 20 -21 8 -3 14 -11 14
-18 0 -8 -3 -9 -8 -3 -15 21 -29 14 -24 -12 4 -20 2 -24 -8 -18 -9 5 -11 4 -6
-4 4 -6 12 -8 18 -5 18 11 -11 -34 -30 -46 -15 -10 -15 -11 0 -6 9 3 19 -2 22
-11 5 -11 2 -14 -10 -9 -14 5 -15 4 -4 -9 15 -18 0 -20 -20 -2 -8 6 -6 2 3 -9
14 -16 15 -23 6 -26 -9 -3 -7 -7 5 -11 9 -4 15 -3 12 2 -3 5 2 15 12 22 15 12
15 12 5 -1 -6 -8 -12 -19 -12 -25 -1 -5 -6 -10 -13 -10 -7 0 -13 -12 -13 -28
-1 -15 1 -25 4 -21 3 3 6 11 6 16 0 6 6 13 13 16 14 4 16 -14 2 -23 -5 -3 -10
-11 -10 -16 0 -6 5 -7 12 -3 7 4 8 3 4 -5 -4 -7 -17 -9 -29 -6 -21 6 -21 5 -2
-6 19 -12 19 -12 0 -20 -17 -7 -18 -8 -2 -8 9 -1 17 -6 17 -12 0 -5 6 -7 13
-3 7 5 6 0 -3 -11 -8 -10 -14 -26 -12 -37 2 -10 -2 -18 -8 -18 -6 0 -8 -5 -5
-10 4 -6 10 -8 15 -5 5 3 12 1 15 -5 4 -6 1 -9 -6 -8 -7 2 -14 -4 -15 -12 -3
-36 -5 -40 -15 -40 -5 0 -7 5 -3 12 4 7 3 8 -5 4 -6 -4 -9 -12 -6 -17 8 -12
35 -11 35 2 0 5 5 7 11 3 7 -4 1 -13 -15 -24 l-26 -17 22 -12 c22 -11 22 -11
-5 -6 -24 5 -27 4 -15 -9 7 -7 15 -12 18 -11 4 2 11 -4 17 -14 9 -14 8 -18 -3
-18 -7 0 -11 4 -8 9 3 4 1 8 -5 8 -5 0 -9 -9 -8 -19 0 -11 4 -18 7 -16 3 2 7
-5 7 -16 1 -10 -3 -19 -8 -19 -6 0 -7 4 -4 10 4 6 -1 7 -11 3 -13 -5 -10 -9
16 -23 27 -14 29 -18 15 -23 -24 -10 -32 -8 -15 3 8 5 10 10 4 10 -6 0 -17 -7
-24 -16 -11 -12 -11 -15 1 -12 8 2 13 -3 12 -9 -2 -7 1 -13 6 -13 5 0 12 -7
15 -16 3 -8 2 -12 -4 -9 -6 3 -10 -1 -10 -10 0 -9 4 -14 9 -10 5 3 13 0 17 -6
4 -7 3 -9 -3 -6 -6 4 -16 0 -23 -8 -10 -12 -10 -15 3 -15 9 0 19 -5 23 -11 4
-7 0 -9 -13 -5 -14 4 -20 2 -20 -9 0 -9 5 -14 12 -12 6 3 11 -3 11 -13 0 -10
-3 -17 -7 -14 -4 2 -10 -3 -13 -12 -5 -12 -1 -14 15 -9 15 5 19 4 15 -4 -4 -6
-17 -11 -29 -12 -22 0 -22 0 1 -10 24 -9 23 -16 -7 -54 -15 -18 -15 -19 0 -7
13 10 18 8 28 -14 6 -15 7 -23 1 -19 -5 3 -10 1 -10 -4 0 -6 5 -11 11 -11 8 0
8 -5 -1 -15 -7 -8 -9 -15 -5 -15 5 0 0 -9 -10 -20 -17 -18 -17 -20 -2 -14 16
6 22 18 18 38 -1 5 5 4 13 -4 9 -7 16 -18 16 -24 0 -6 -5 -4 -10 4 -8 12 -10
13 -10 1 0 -8 8 -24 17 -35 14 -17 15 -18 2 -8 -14 10 -17 9 -22 -8 -3 -11 1
-27 10 -35 8 -8 10 -15 4 -15 -6 0 -11 -5 -11 -11 0 -5 5 -7 10 -4 6 3 10 -1
10 -10 0 -10 -5 -13 -12 -9 -6 4 -8 3 -4 -4 3 -5 0 -13 -6 -16 -7 -3 1 -4 17
-1 17 2 24 2 17 -1 -6 -3 -10 -10 -7 -15 4 -5 0 -6 -8 -3 -8 3 -18 1 -21 -4
-3 -5 2 -9 11 -8 9 0 18 -5 21 -13 3 -8 0 -11 -7 -7 -7 5 -9 1 -5 -9 5 -12 9
-13 20 -4 8 7 17 9 21 5 3 -3 1 -6 -6 -6 -7 0 -11 -7 -8 -14 4 -10 1 -14 -11
-10 -9 2 -3 -3 13 -11 23 -12 25 -15 8 -11 -13 2 -26 -1 -30 -6 -3 -6 -2 -8 3
-5 6 3 16 2 24 -4 13 -7 12 -9 -2 -9 -9 0 -20 -5 -24 -12 -5 -8 -2 -9 11 -4
24 9 36 -11 25 -40 -6 -14 -5 -26 1 -29 5 -4 8 -1 7 6 -2 6 4 14 12 16 13 4
13 3 0 -6 -8 -6 -11 -11 -6 -11 6 0 5 -5 -2 -12 -15 -15 -15 -28 -1 -28 5 0 7
5 3 12 -5 7 -3 8 5 4 7 -5 10 -11 7 -14 -3 -3 -1 -11 5 -18 12 -14 4 -34 -13
-34 -7 0 -6 5 1 14 9 10 9 16 1 21 -6 4 -14 4 -17 1 -4 -3 -1 -6 7 -6 10 0 10
-3 1 -14 -13 -16 2 -32 19 -21 5 3 10 1 10 -5 0 -6 4 -9 8 -6 5 3 9 -1 9 -9 0
-11 -4 -12 -13 -4 -8 7 -14 6 -20 -2 -5 -8 -3 -9 5 -5 8 5 11 3 9 -7 -2 -8 11
-27 27 -41 17 -15 22 -24 13 -20 -13 4 -18 1 -18 -11 0 -9 5 -13 10 -10 6 3
10 -1 10 -9 0 -9 5 -16 12 -16 6 0 8 -3 5 -6 -4 -4 -13 -1 -21 5 -13 11 -15 9
-11 -8 5 -30 15 -42 26 -36 5 4 9 1 9 -5 0 -6 5 -8 12 -4 7 5 8 3 3 -6 -4 -7
-2 -16 6 -21 11 -6 10 -12 -6 -28 -10 -12 -15 -24 -12 -28 4 -3 7 -1 7 5 0 6
8 10 18 9 14 -1 17 -7 14 -25 -4 -19 -2 -23 9 -17 11 7 11 5 -1 -10 -14 -17
-14 -18 10 -5 19 9 22 10 13 0 -6 -7 -10 -18 -9 -24 2 -6 1 -8 -1 -3 -12 19
-20 4 -10 -18 7 -14 16 -25 20 -25 5 0 6 4 3 9 -9 14 5 42 16 35 6 -4 5 -10
-3 -15 -9 -6 -10 -12 -4 -17 16 -12 16 -32 0 -26 -8 4 -15 2 -15 -3 0 -13 32
-13 50 1 8 6 7 1 -4 -11 -10 -13 -23 -20 -29 -16 -6 3 -7 1 -3 -5 4 -6 13 -9
20 -6 7 3 16 -2 20 -11 3 -9 11 -13 17 -9 8 4 9 3 5 -5 -4 -6 -12 -9 -17 -6
-5 4 -9 2 -9 -3 0 -5 10 -14 22 -20 23 -11 23 -11 -2 -8 -14 2 -19 1 -12 -1 7
-3 10 -8 7 -13 -3 -5 2 -16 11 -24 8 -9 12 -16 8 -16 -3 0 -1 -6 5 -13 6 -8 7
-17 3 -21 -4 -4 -2 -7 3 -6 20 4 35 0 35 -10 0 -5 -6 -8 -12 -6 -7 1 -10 1 -5
-1 4 -3 4 -10 1 -15 -4 -7 -2 -8 5 -4 6 4 14 0 17 -8 3 -9 11 -16 17 -16 5 0
2 9 -8 20 -10 11 -13 20 -8 20 10 0 26 -29 23 -40 -1 -2 7 -8 17 -12 12 -6 8
-6 -12 -3 -22 4 -26 3 -15 -4 8 -6 15 -16 15 -23 1 -7 7 -12 14 -10 9 2 12 -5
9 -23 -6 -31 -1 -32 12 -2 9 19 10 18 7 -11 -2 -22 1 -32 10 -32 7 0 13 5 13
11 0 5 5 7 11 3 8 -5 8 -9 -1 -14 -9 -5 -9 -9 -1 -14 6 -4 11 -14 11 -22 0 -8
-4 -13 -9 -9 -5 3 -12 1 -16 -4 -3 -6 6 -8 21 -5 14 3 23 1 20 -4 -3 -5 1 -19
8 -33 7 -13 11 -31 8 -39 -3 -13 -2 -13 7 0 6 9 7 18 1 24 -6 6 -10 15 -10 20
0 6 7 1 15 -11 9 -12 15 -26 14 -30 -3 -20 2 -34 14 -32 34 4 41 -1 21 -17
-18 -14 -18 -15 6 -8 20 5 23 4 13 -7 -7 -7 -13 -18 -13 -24 0 -5 5 -3 10 5 8
12 10 11 10 -7 0 -13 5 -23 11 -23 5 0 7 5 3 12 -4 7 -3 8 4 4 6 -4 8 -14 5
-23 -5 -11 -3 -14 6 -8 10 6 11 3 3 -12 -9 -15 -8 -20 3 -20 8 0 12 4 9 8 -2
4 1 11 8 15 7 4 10 4 6 -1 -13 -14 11 -45 30 -39 16 5 16 5 0 -6 -22 -14 -23
-30 -3 -30 18 0 19 -11 3 -30 -7 -8 -4 -7 7 3 19 18 19 19 1 32 -18 13 -18 14
2 12 17 -1 20 -7 18 -39 -3 -32 -1 -35 9 -21 9 11 14 13 19 4 4 -6 12 -9 17
-6 5 4 9 2 9 -3 0 -6 -7 -13 -16 -16 -8 -3 -12 -2 -9 4 10 16 -1 11 -16 -7 -8
-10 -9 -14 -2 -10 6 4 15 2 20 -5 4 -7 17 -20 28 -28 18 -14 19 -13 8 1 -10
13 -10 16 1 16 7 0 13 -10 12 -21 -2 -26 26 -48 51 -40 13 4 14 3 5 -3 -15
-11 -5 -46 10 -37 6 4 5 10 -3 16 -11 8 -11 9 1 5 8 -2 14 -10 13 -16 -2 -6
-4 -16 -5 -23 -4 -15 23 -18 41 -4 12 9 12 7 2 -11 -10 -20 -9 -25 17 -40 17
-11 27 -24 25 -33 -4 -13 -3 -13 6 0 8 11 7 18 -3 26 -10 7 -12 15 -5 25 7 11
9 11 9 -4 0 -12 4 -16 12 -11 7 4 10 4 6 -1 -4 -4 -2 -15 5 -23 10 -13 9 -15
-3 -8 -8 4 -6 1 5 -8 11 -8 26 -20 33 -26 9 -8 12 -7 12 1 0 7 3 9 6 6 4 -4 1
-14 -7 -24 -12 -14 -12 -16 0 -8 11 6 13 4 7 -11 -4 -10 -4 -15 0 -11 4 4 14
1 23 -6 14 -10 14 -10 3 5 -9 11 -10 18 -2 23 6 4 10 3 9 -2 -4 -15 13 -43 22
-37 5 3 9 -2 9 -10 0 -9 5 -16 11 -16 5 0 7 5 4 10 -4 6 4 5 19 -1 14 -7 23
-16 20 -20 -3 -5 1 -9 9 -9 8 0 18 -7 21 -16 3 -8 10 -13 15 -10 5 3 7 -3 4
-14 -3 -11 0 -20 6 -20 6 0 11 8 12 18 0 12 2 13 6 3 3 -8 -3 -21 -13 -29 -15
-12 -16 -14 -2 -9 17 6 43 -15 32 -26 -3 -3 6 -4 20 -3 19 2 26 -1 24 -12 -3
-16 20 -24 67 -24 28 0 28 0 8 -8 -28 -11 -30 -20 -3 -15 11 2 20 -1 20 -7 0
-6 7 -5 18 3 14 11 15 11 5 -1 -17 -18 -17 -38 -1 -22 7 7 17 12 22 12 6 0 5
-4 -2 -8 -13 -9 -6 -42 8 -42 5 0 15 7 24 15 16 17 30 20 21 6 -3 -6 4 -15 15
-21 11 -6 18 -15 15 -19 -3 -5 2 -12 11 -15 9 -3 12 -11 8 -18 -5 -9 -2 -9 9
1 16 13 16 14 0 28 -16 13 -16 13 5 3 12 -6 20 -15 17 -21 -4 -5 -2 -9 3 -9 5
0 14 -10 20 -22 11 -21 11 -21 7 7 -3 17 -2 24 2 15 11 -20 34 -24 45 -8 6 9
7 6 3 -8 -6 -22 19 -59 34 -50 4 3 14 -4 21 -15 8 -10 18 -19 23 -19 5 0 -1
13 -13 30 -22 31 -19 40 5 16 8 -7 11 -17 7 -21 -4 -4 2 -5 12 -3 11 1 21 -4
23 -12 4 -13 3 -13 -6 0 -8 11 -11 11 -11 2 0 -7 7 -15 16 -19 11 -4 12 -8 4
-13 -8 -5 -7 -9 5 -13 10 -5 14 -3 9 4 -4 7 -1 10 7 7 8 -3 13 -10 12 -15 -1
-5 5 -10 14 -10 12 0 9 7 -10 23 -27 23 -39 47 -14 25 8 -6 16 -10 18 -8 2 1
3 0 2 -2 -5 -8 20 -31 28 -25 5 3 6 -1 3 -9 -3 -8 3 -20 12 -28 10 -8 15 -9
11 -2 -4 6 -4 13 0 16 5 2 1 2 -7 0 -11 -3 -12 -1 -3 8 14 14 34 3 27 -15 -3
-7 2 -16 10 -19 11 -4 13 -1 10 11 -5 15 -4 15 9 0 17 -21 28 -23 24 -5 -1 6
4 12 12 12 8 0 15 -6 17 -13 1 -7 0 -8 -3 -2 -2 5 -9 10 -15 10 -6 0 -6 -6 2
-15 12 -14 7 -20 -15 -15 -5 1 -4 -4 3 -12 8 -8 15 -9 20 -2 4 5 20 11 36 12
23 2 27 -1 24 -16 -3 -11 0 -19 7 -19 7 0 11 6 9 12 -3 6 2 12 10 12 9 0 12
-6 8 -16 -5 -14 -4 -14 13 -1 17 14 18 13 12 -5 -6 -17 -5 -18 5 -4 12 14 15
14 33 -4 20 -20 20 -20 -3 -8 -12 6 -22 8 -22 3 0 -6 9 -12 20 -15 31 -8 35
-8 35 2 0 5 4 13 9 18 5 4 6 3 3 -3 -4 -6 1 -20 11 -31 14 -16 20 -18 29 -8 6
7 9 16 6 19 -4 3 -1 6 5 6 16 0 15 -12 0 -30 -8 -8 -3 -7 14 3 25 16 27 16 21
0 -4 -10 -2 -14 4 -10 6 4 13 0 17 -8 6 -16 36 -10 36 7 0 7 -5 6 -14 -1 -11
-9 -15 -8 -20 5 -8 21 -8 24 5 24 5 0 7 -4 4 -10 -8 -13 8 -13 21 0 8 8 15 6
25 -6 12 -15 12 -17 0 -9 -9 5 -12 4 -7 -3 7 -12 37 -5 47 11 3 5 9 1 12 -8 4
-9 3 -14 -1 -11 -5 3 -9 -1 -9 -9 0 -9 5 -11 16 -6 17 9 49 7 59 -4 4 -3 -6
-4 -21 -1 -14 2 -29 1 -32 -3 -2 -5 3 -8 13 -8 39 0 53 -3 48 -12 -3 -5 1 -14
9 -21 10 -9 15 -9 15 -1 0 6 -4 11 -8 11 -5 0 -9 6 -9 14 0 8 8 11 19 8 10 -2
15 -8 12 -13 -3 -5 2 -9 11 -9 9 0 13 5 10 10 -3 6 -4 10 0 10 3 0 10 -10 16
-22 9 -22 9 -21 6 4 -2 15 0 25 4 22 5 -3 9 -15 9 -27 1 -21 1 -21 16 3 13 21
14 22 9 4 -5 -20 -2 -22 30 -20 20 1 39 -2 42 -6 2 -5 9 -5 15 -2 7 5 9 1 5
-9 -3 -9 -1 -19 5 -23 7 -4 8 -3 4 4 -4 7 -1 12 8 12 8 0 20 -8 25 -17 6 -10
11 -13 11 -8 0 6 -5 16 -11 22 -8 8 -7 13 2 18 8 5 10 4 5 -3 -4 -7 -3 -12 2
-12 5 0 13 -10 19 -22 8 -19 10 -20 16 -4 4 10 3 15 -3 11 -6 -3 -10 -1 -10 4
0 15 8 14 38 -7 15 -10 39 -17 55 -16 15 2 25 -1 22 -6 -3 -5 -1 -11 4 -15 6
-3 8 4 6 16 -4 18 -1 20 20 15 15 -4 25 -2 25 4 0 6 -4 9 -9 5 -5 -3 -13 0
-17 7 -4 7 -4 10 1 6 4 -4 15 -2 23 5 11 8 14 8 9 0 -4 -6 -3 -14 3 -18 9 -6
14 8 11 28 -1 5 3 6 8 2 6 -3 8 -12 5 -19 -3 -8 4 -16 16 -19 18 -4 19 -3 9 9
-10 12 -9 13 6 8 14 -6 16 -4 10 7 -6 11 -5 11 5 2 7 -6 18 -9 24 -7 7 3 18
-7 26 -21 7 -14 15 -23 18 -20 3 2 -1 11 -7 19 -9 11 -9 16 0 22 8 4 9 3 5 -4
-10 -16 7 -15 23 0 11 10 13 10 7 1 -5 -8 -1 -13 9 -13 9 0 14 -3 12 -7 -3 -5
11 -9 30 -9 22 -1 30 2 22 7 -7 4 -16 6 -20 3 -4 -2 -13 4 -20 14 -13 16 -13
16 5 2 18 -14 19 -13 13 5 -7 19 -6 19 7 3 16 -21 32 -23 39 -5 4 9 6 9 6 0 1
-7 6 -13 12 -13 5 0 7 5 4 10 -10 16 1 11 16 -7 12 -14 12 -16 0 -8 -9 5 -12
4 -7 -3 5 -8 17 -6 40 7 25 14 33 16 33 5 0 -7 -4 -11 -9 -8 -4 3 -8 1 -8 -5
0 -5 9 -9 19 -8 11 0 18 4 15 8 -8 14 31 15 52 2 17 -11 21 -11 21 2 0 8 -5
11 -10 8 -6 -4 -7 -1 -2 6 5 9 10 10 18 2 18 -18 31 -12 16 7 -11 13 -8 12 9
-3 20 -16 25 -17 32 -5 6 8 10 10 10 5 0 -6 10 -16 23 -24 20 -13 21 -13 8 3
-13 16 -13 17 5 14 13 -2 19 2 18 14 -1 10 2 15 7 12 5 -3 19 -7 31 -9 12 -3
26 -10 30 -17 6 -9 7 -6 4 8 -4 14 -2 21 8 21 9 0 13 -4 10 -9 -3 -4 -1 -8 4
-8 17 0 22 13 9 29 -11 14 -10 14 6 2 11 -9 15 -21 12 -35 -5 -19 -5 -19 5 -3
6 10 16 14 23 10 8 -4 7 -1 -1 9 -10 13 -10 18 -1 24 8 4 9 3 5 -4 -4 -7 -3
-12 3 -12 5 0 14 7 19 16 8 15 10 15 15 0 5 -11 15 -15 32 -12 14 3 25 0 25
-6 0 -6 3 -8 7 -4 5 4 0 13 -9 20 -15 11 -13 13 16 12 19 -1 32 -4 30 -8 -2
-4 0 -9 4 -12 5 -3 9 5 8 17 -1 12 -8 21 -15 19 -7 -1 -10 2 -6 8 5 8 11 8 20
0 8 -7 20 -8 27 -4 9 6 9 3 -1 -9 -8 -10 -11 -20 -7 -24 3 -3 6 -1 6 5 0 16
17 15 23 0 2 -7 2 0 -1 16 -4 25 -2 27 11 15 8 -8 13 -17 10 -21 -8 -15 5 -8
18 9 12 15 12 16 -1 8 -12 -6 -12 -5 -3 5 13 15 36 4 27 -13 -4 -7 -4 -9 1 -5
4 4 17 2 29 -4 20 -10 20 -10 -1 11 -23 22 -31 37 -14 27 5 -4 11 -3 14 1 2 5
2 2 1 -4 -2 -7 3 -13 11 -13 8 0 15 5 15 10 0 6 5 10 11 10 5 0 7 -5 3 -12 -4
-6 -3 -8 4 -4 5 3 13 0 16 -6 4 -7 4 -3 2 10 -5 25 9 30 18 7 3 -8 11 -15 18
-15 10 0 10 2 1 8 -9 6 -6 11 8 21 12 7 18 8 15 2 -4 -5 -3 -12 2 -15 4 -2 9
4 9 15 1 10 -3 19 -9 19 -6 0 -8 3 -4 7 4 4 16 -3 27 -17 l19 -25 18 20 c15
19 45 37 64 39 4 1 12 6 19 13 8 8 19 9 37 2 21 -8 29 -7 39 8 8 9 11 23 9 30
-3 7 1 10 10 6 8 -3 13 -11 11 -18 -3 -6 1 -12 8 -12 8 0 11 7 7 16 -5 14 -4
14 13 1 17 -14 18 -14 6 8 -11 21 -11 23 6 14 19 -10 49 9 35 23 -4 3 5 2 20
-4 20 -7 29 -7 38 4 6 8 19 11 28 8 13 -4 12 -2 -3 10 -19 16 -19 18 8 21 6 1
11 8 9 16 -3 11 0 11 12 0 13 -10 16 -10 17 1 0 8 5 4 11 -7 10 -22 10 -22 29
-3 11 11 24 17 29 14 5 -3 7 0 4 8 -3 8 2 20 10 27 9 7 14 15 12 19 -3 4 4 8
15 8 10 1 19 -3 19 -8 0 -6 -4 -8 -9 -5 -4 3 -16 -3 -25 -13 -13 -14 -14 -21
-5 -27 7 -4 10 -3 6 3 -8 13 41 36 56 26 7 -4 4 5 -6 20 -9 15 -13 27 -7 27 5
0 10 -4 10 -10 0 -5 7 -7 15 -4 8 4 12 11 8 17 -3 6 -1 7 5 3 11 -7 17 6 13
27 -1 5 3 6 9 2 7 -4 7 -12 0 -26 -7 -13 -7 -19 0 -19 5 0 10 4 10 10 0 5 6 9
13 7 7 -1 11 6 9 17 -2 13 0 16 10 10 20 -13 38 -13 35 -1 -1 7 3 11 9 10 6
-1 10 9 8 23 -2 23 9 26 12 3 1 -5 2 -12 3 -15 0 -4 7 -1 15 6 17 13 10 43 -8
33 -6 -3 -7 -2 -3 3 5 5 16 9 25 9 11 0 16 7 14 20 -2 11 -1 17 3 13 6 -6 12
-28 14 -53 1 -5 5 -3 10 4 6 9 6 22 0 33 -7 13 -6 18 3 16 6 -2 12 2 13 9 0
23 11 22 11 -2 0 -13 -4 -21 -10 -18 -5 4 -6 1 -1 -7 6 -10 11 -9 21 4 7 10
10 24 8 30 -3 7 1 18 9 24 11 9 14 8 14 -3 0 -8 -4 -12 -9 -9 -4 3 -8 1 -8 -4
0 -5 9 -12 21 -15 12 -3 19 -3 16 -1 -10 10 41 54 62 54 11 0 21 5 21 11 0 5
-4 8 -8 5 -5 -3 -9 1 -9 9 0 8 4 15 9 15 4 0 8 -4 8 -10 0 -5 7 -10 16 -10 13
0 14 3 5 14 -9 11 -9 16 0 22 8 5 9 3 4 -6 -6 -10 -4 -12 9 -7 9 4 14 3 11 -2
-3 -5 -2 -12 3 -15 4 -2 9 7 10 20 1 15 -2 22 -8 19 -6 -3 -10 -1 -10 4 0 14
17 14 26 0 4 -8 9 -7 14 2 7 10 12 10 27 -2 17 -13 17 -13 4 4 -8 10 -20 16
-27 13 -7 -3 -16 -1 -19 3 -3 5 8 8 24 7 19 -1 27 2 23 8 -10 17 -11 35 -2 41
5 3 7 -3 5 -14 -2 -11 3 -22 10 -25 9 -3 12 0 9 8 -3 7 2 20 10 29 8 8 12 18
8 22 -4 5 -1 5 6 1 11 -6 10 -12 -4 -27 -9 -10 -12 -19 -7 -19 6 0 14 7 17 16
3 8 10 13 15 9 5 -3 13 0 17 6 4 7 3 9 -3 6 -6 -4 -13 -1 -16 7 -3 8 1 17 9
20 9 3 12 11 8 17 -4 8 -3 9 5 5 9 -6 9 -11 0 -22 -10 -12 -9 -13 5 -8 16 6
22 39 9 47 -5 2 -2 2 5 1 6 -2 12 1 12 6 0 5 11 12 25 16 32 8 33 23 0 20 -13
-2 -22 1 -19 6 3 5 12 7 20 4 7 -3 23 7 35 22 11 15 23 26 25 25 12 -8 24 -1
18 9 -5 7 -3 8 6 3 10 -6 9 -11 -5 -22 -11 -7 -23 -13 -28 -13 -4 0 -5 -5 -1
-12 5 -7 3 -8 -6 -3 -9 6 -11 4 -5 -4 5 -9 13 -7 29 8 12 12 25 19 28 16 9
-10 5 30 -5 43 -7 9 -6 11 7 6 12 -4 15 -2 10 9 -3 8 -1 18 4 21 5 3 9 0 8 -7
0 -6 3 -12 9 -12 5 0 9 3 8 8 -2 4 2 7 8 7 5 0 7 5 4 10 -5 8 39 16 68 11 4 0
7 4 7 10 0 6 -8 8 -19 4 -11 -3 -22 -1 -26 4 -4 7 1 8 12 4 16 -6 17 -5 3 12
-9 11 -10 16 -2 11 7 -4 12 -2 12 6 0 10 2 10 9 -1 5 -8 17 -16 25 -17 9 -1
14 2 10 7 -7 12 31 60 41 51 4 -4 2 4 -5 17 -9 18 -9 22 0 16 9 -5 10 -2 6 13
-5 15 -2 22 14 27 11 3 21 11 21 16 1 5 2 15 3 22 0 6 8 12 16 12 9 0 14 8 12
20 -2 15 -1 17 6 6 6 -9 12 -10 16 -3 4 6 13 9 21 6 8 -4 12 -11 8 -17 -3 -6
-1 -7 6 -3 6 4 9 11 6 16 -3 5 2 16 11 25 13 13 14 16 3 15 -8 -1 -21 -2 -29
-1 -13 1 -13 3 -1 10 8 5 20 7 28 4 7 -3 13 0 13 6 0 6 -6 11 -12 12 -7 0 -3
4 10 9 20 8 21 13 12 32 -11 22 -10 22 4 4 11 -13 13 -23 6 -30 -5 -5 -10 -15
-10 -21 0 -5 5 -2 11 8 6 9 15 15 21 11 7 -4 7 0 0 12 -5 11 -7 25 -4 33 3 9
0 11 -8 6 -8 -5 -11 -4 -7 2 4 6 22 10 42 8 19 -1 32 2 29 7 -3 4 -10 6 -15 3
-5 -4 -9 -2 -9 4 0 6 -8 8 -17 5 -17 -5 -17 -5 0 6 9 6 22 8 29 4 7 -5 8 -3 3
6 -6 10 -3 12 11 7 18 -7 18 -6 -1 9 -20 16 -20 16 2 11 13 -3 26 0 30 5 3 7
1 8 -5 4 -15 -9 -15 -1 -1 26 6 11 7 18 2 15 -5 -4 -10 0 -10 8 0 8 3 14 6 13
19 -2 24 4 11 13 -12 9 -11 10 7 6 28 -6 39 9 38 54 -1 26 3 35 12 32 7 -3 13
-9 13 -15 0 -5 -4 -7 -9 -4 -11 7 -9 -21 2 -29 4 -3 5 -2 2 1 -2 4 2 15 9 26
8 11 12 28 9 39 -3 11 0 19 6 19 7 0 9 -5 5 -12 -5 -7 -3 -8 5 -3 9 5 10 10 2
18 -7 7 -6 18 4 37 8 15 11 31 7 36 -4 5 1 3 10 -4 14 -11 18 -10 27 6 6 11 8
22 5 25 -7 7 31 28 40 22 3 -3 4 -2 1 2 -7 9 -45 11 -39 2 2 -4 0 -10 -5 -13
-5 -4 -8 2 -6 11 2 10 4 21 4 25 1 4 13 19 29 34 15 15 19 22 9 14 -15 -11
-17 -11 -11 4 3 9 10 16 16 16 5 0 7 4 4 9 -3 5 0 11 8 14 9 4 12 -2 10 -20
-1 -14 0 -22 3 -19 4 3 7 22 9 41 2 32 0 34 -14 23 -15 -12 -16 -11 -3 4 7 10
17 15 22 12 5 -3 9 0 9 6 0 6 5 8 12 4 6 -4 8 -3 4 4 -3 6 -2 13 4 17 5 3 10
1 10 -6 0 -7 2 -10 5 -7 3 3 3 12 -1 21 -5 15 -8 14 -23 -5 -14 -16 -20 -18
-26 -8 -5 9 -4 11 4 6 6 -4 14 0 18 11 9 25 29 43 37 35 4 -3 4 1 0 11 -3 9
-11 14 -18 10 -6 -4 -5 1 3 10 7 9 10 17 5 17 -5 0 4 8 20 18 26 16 48 72 27
72 -4 0 -8 7 -8 15 0 12 3 12 15 2 13 -10 14 -9 3 12 -9 16 -10 26 -3 33 6 6
8 18 5 27 -4 13 -3 14 5 1 6 -8 9 -17 6 -21 -2 -4 1 -11 7 -15 7 -4 9 -3 6 3
-8 13 17 35 29 25 4 -4 2 1 -6 11 -12 16 -12 20 1 28 10 8 7 9 -11 4 -17 -4
-21 -3 -12 3 8 5 13 12 13 16 -3 20 0 26 10 20 8 -4 7 -9 -2 -15 -10 -6 -7 -8
8 -6 17 1 19 4 11 14 -7 8 -7 17 -1 26 15 19 8 64 -13 89 -12 15 -13 18 -3 10
14 -10 19 -9 31 10 8 13 13 34 11 47 -3 21 -1 22 14 10 15 -12 16 -12 8 1 -5
8 -10 22 -12 30 -1 8 -7 16 -12 18 -6 2 -11 8 -11 14 0 6 10 3 21 -8 l22 -19
-16 31 c-10 19 -12 35 -7 44 5 8 6 18 4 22 -3 4 2 5 11 2 14 -6 14 -8 0 -24
-12 -14 -13 -20 -4 -26 7 -4 10 -3 5 4 -3 6 1 15 11 20 14 8 15 13 5 24 -6 8
-9 18 -5 22 4 4 -1 4 -11 0 -14 -5 -17 -4 -12 4 4 7 14 12 22 12 8 0 14 5 14
11 0 5 -4 8 -8 5 -5 -3 -9 1 -9 9 0 8 4 12 9 9 9 -6 9 -6 12 53 2 34 0 40 -13
35 -14 -5 -14 -3 1 11 19 19 33 23 22 5 -5 -7 -3 -8 6 -3 10 6 9 11 -4 21 -16
11 -16 13 5 19 23 8 23 8 -4 22 -28 14 -37 26 -14 17 8 -3 13 5 15 22 1 15 6
32 10 38 5 6 7 17 6 24 -1 6 -2 24 -3 40 -1 19 -4 23 -10 13 -5 -8 -11 -9 -15
-3 -3 5 1 13 10 16 15 6 14 9 -2 34 -15 24 -15 25 -1 13 12 -9 17 -10 17 -2 0
7 5 9 10 6 8 -5 7 -11 -1 -21 -7 -9 -8 -14 -1 -14 19 0 19 25 -2 59 -18 30
-18 34 -3 28 9 -3 17 -2 17 3 0 6 -7 10 -16 10 -8 0 -13 4 -10 9 4 5 0 12 -6
15 -7 3 -3 3 9 1 12 -3 25 0 29 6 4 8 3 9 -4 5 -18 -11 -14 5 6 28 16 20 16
20 0 7 -15 -11 -18 -11 -18 2 0 9 4 19 10 22 6 3 10 11 10 17 0 6 -9 1 -19
-11 -19 -22 -20 -22 -18 -3 0 12 5 18 9 16 4 -3 8 2 8 11 0 9 -5 13 -11 10 -6
-4 -5 2 2 13 7 12 18 18 24 14 5 -3 4 2 -4 11 -14 18 -26 23 -16 8 9 -15 -15
-25 -28 -12 -9 9 -8 11 5 6 18 -7 19 9 4 34 -6 9 -5 12 0 8 6 -3 16 -2 24 4
13 7 13 9 1 9 -11 0 -10 4 5 16 15 13 16 15 2 10 -12 -3 -15 -1 -11 10 3 7 0
14 -6 14 -6 0 -11 5 -11 12 0 7 7 5 18 -5 16 -15 18 -15 18 3 0 10 -3 17 -7
14 -4 -2 -10 3 -13 12 -3 8 -10 12 -16 9 -5 -3 -10 -1 -10 4 0 6 4 11 8 11 5
0 9 7 9 15 0 10 -6 14 -16 10 -10 -3 -9 1 4 10 22 18 26 34 12 53 -6 8 -6 12
2 12 6 0 11 4 11 8 0 5 -6 9 -13 9 -7 0 -13 -11 -13 -23 0 -12 3 -21 6 -19 4
2 7 -2 7 -9 0 -7 -6 -13 -12 -13 -7 0 -11 12 -10 29 2 18 -3 32 -11 35 -12 4
-11 8 3 19 10 7 14 14 9 14 -5 0 -2 8 5 17 12 15 12 16 -3 10 -10 -3 -20 -1
-24 5 -4 6 -3 8 4 4 6 -3 13 -2 17 3 3 5 -3 15 -12 21 -16 11 -16 11 2 5 11
-3 16 -3 12 1 -4 4 -1 14 6 22 9 13 9 14 0 8 -9 -5 -13 0 -13 13 0 12 5 21 12
21 6 0 8 3 4 7 -4 5 -13 0 -20 -9 -11 -15 -13 -15 -26 5 -12 20 -11 21 2 9 13
-10 17 -10 22 4 8 21 8 24 -5 24 -5 0 -7 -5 -3 -12 4 -7 3 -8 -4 -4 -15 9 -3
38 12 29 6 -3 2 3 -8 15 -19 22 -19 22 0 23 15 1 13 3 -6 9 -14 4 -18 9 -10
10 10 1 7 4 -7 10 -13 5 -20 16 -18 27 1 10 -3 24 -9 32 -9 12 -8 12 11 2 19
-10 22 -9 17 4 -4 8 -9 15 -13 15 -4 0 -13 12 -20 28 l-12 27 21 -25 c21 -25
21 -25 10 -1 -10 19 -9 25 1 32 9 5 2 7 -19 4 -29 -3 -32 -2 -21 11 10 13 10
17 -2 26 -11 8 -11 9 3 5 18 -6 33 19 17 28 -5 4 -6 11 -3 17 4 7 2 8 -5 4 -6
-4 -9 -11 -6 -16 3 -5 0 -12 -7 -16 -7 -4 -10 -4 -6 1 4 4 2 17 -4 29 -15 26
-17 51 -7 68 5 8 0 17 -14 26 -12 7 -15 11 -7 10 8 -2 15 2 15 7 0 6 -3 9 -6
8 -4 -1 -15 7 -25 19 -11 12 -13 18 -6 14 7 -4 12 -2 12 5 0 7 8 22 18 33 17
20 17 21 -3 5 -36 -29 -51 -34 -31 -11 19 22 10 32 -11 11 -8 -8 -13 -7 -18 2
-5 7 -4 10 2 6 5 -3 17 3 26 14 18 21 9 27 -11 7 -9 -9 -12 -9 -12 0 0 7 7 15
15 18 8 4 15 10 15 15 0 6 -9 5 -20 -1 -16 -8 -20 -8 -18 2 2 7 -3 12 -11 10
-12 -3 -12 -1 -1 13 19 23 21 42 4 56 -8 6 -11 16 -8 21 4 6 -3 8 -17 4 -13
-3 -18 -3 -11 0 6 3 12 10 12 15 0 6 -4 7 -10 4 -6 -4 -7 1 -3 12 5 14 4 16
-8 8 -8 -5 -6 -2 4 8 11 9 14 17 8 17 -7 0 -9 5 -6 10 4 6 3 10 -2 9 -18 -3
-33 2 -33 11 0 5 8 7 18 4 13 -5 14 -4 3 4 -11 8 -11 11 0 16 8 3 4 3 -8 0
-19 -4 -22 -2 -16 12 5 13 3 15 -7 9 -10 -6 -12 -4 -7 8 3 10 2 17 -4 17 -6 0
-7 6 -3 13 5 7 0 6 -11 -3 -20 -16 -20 -17 1 35 3 8 1 15 -6 15 -6 0 -9 -4 -6
-9 3 -5 -2 -15 -11 -22 -14 -12 -16 -12 -8 1 5 8 10 32 11 54 1 23 -1 33 -6
25 -5 -7 -7 -16 -5 -19 2 -4 -3 -7 -11 -7 -10 0 -13 6 -9 16 11 27 13 61 3 55
-5 -3 -7 -12 -4 -20 3 -8 -1 -14 -10 -14 -8 0 -12 5 -9 10 3 6 1 10 -6 10 -7
0 -4 7 7 15 12 10 14 13 3 10 -18 -7 -38 29 -33 59 2 14 0 16 -9 7 -18 -18
-31 -13 -16 6 12 15 12 16 -3 11 -25 -10 -30 3 -12 30 9 13 11 22 6 18 -6 -3
-13 -2 -17 4 -4 6 -9 8 -13 6 -4 -2 -12 2 -19 9 -10 10 -9 14 2 19 8 3 15 0
15 -6 0 -6 3 -9 6 -5 3 3 1 14 -5 24 -6 10 -11 12 -11 6 0 -7 -5 -13 -11 -13
-5 0 -7 4 -4 10 4 6 -1 7 -11 3 -13 -5 -15 -3 -8 8 11 19 14 40 4 34 -4 -3
-13 2 -20 10 -9 11 -9 15 -1 15 7 0 9 4 6 10 -4 6 -11 5 -19 -2 -10 -10 -9
-16 8 -30 12 -9 17 -17 13 -18 -4 0 -20 12 -35 26 -15 15 -22 24 -16 20 7 -3
14 0 17 8 4 10 -1 12 -16 9 -22 -4 -22 -4 -2 13 18 15 18 16 1 10 -13 -4 -17
-2 -13 7 3 8 1 20 -4 28 -5 8 -9 9 -9 4 0 -6 -10 -11 -21 -12 -21 -2 -21 -1
-3 12 12 9 14 14 6 15 -8 0 -10 5 -6 13 6 8 3 8 -9 -1 -14 -12 -16 -11 -12 7
2 12 -1 21 -7 21 -7 0 -6 5 1 14 9 11 9 16 0 22 -7 4 -9 3 -5 -4 3 -6 -2 -16
-13 -22 -23 -12 -29 -5 -27 31 1 16 -3 25 -10 22 -6 -2 -14 3 -17 11 -4 10
-13 13 -24 9 -15 -6 -16 -5 -3 9 9 9 18 12 21 6 4 -5 9 -3 12 5 6 16 -9 17
-32 3 -10 -7 -12 -4 -6 13 5 16 3 20 -9 15 -9 -3 -16 -1 -16 6 0 6 -5 8 -10 5
-6 -4 -10 -3 -9 2 3 20 -2 34 -11 28 -5 -3 -10 3 -10 15 0 14 -4 19 -12 14 -8
-5 -9 -2 -4 11 5 15 4 16 -9 5 -12 -10 -15 -9 -15 5 0 13 -6 16 -21 12 -16 -4
-18 -3 -8 9 6 7 16 11 22 7 6 -3 7 -1 3 5 -5 9 -13 9 -29 1 -22 -12 -22 -11
-4 9 14 15 15 22 6 28 -8 4 -10 3 -5 -4 4 -7 1 -12 -8 -12 -8 0 -16 -6 -19
-12 -3 -7 -4 -3 -4 9 1 12 4 20 7 18 4 -2 7 2 7 10 0 8 -4 12 -8 10 -10 -7
-30 21 -21 30 4 4 -3 3 -14 -3 -28 -15 -51 6 -31 28 9 10 9 11 0 6 -7 -4 -13
-2 -13 5 0 8 -5 7 -17 -2 -15 -13 -15 -12 -5 8 14 25 16 45 3 24 -5 -8 -16
-16 -24 -17 -13 -2 -17 8 -18 49 0 9 -5 17 -10 17 -6 0 -7 -4 -4 -10 3 -5 1
-10 -5 -10 -6 0 -8 -5 -4 -12 4 -6 3 -8 -3 -5 -12 7 -11 36 2 57 8 13 6 13 -8
1 -9 -7 -15 -17 -12 -21 3 -5 -4 -6 -15 -3 -19 5 -19 6 -4 18 11 8 13 14 6 19
-6 3 -13 2 -17 -4 -3 -5 -11 -10 -18 -10 -8 0 -8 3 1 12 7 7 12 17 12 23 0 5
-5 3 -10 -5 -9 -13 -10 -13 -11 0 -1 8 -1 19 0 23 1 5 -3 6 -9 2 -6 -3 -8 -10
-5 -15 3 -5 1 -11 -4 -14 -5 -4 -8 6 -6 20 2 19 -3 28 -16 31 -11 3 -19 9 -19
14 0 5 -7 5 -17 2 -12 -5 -14 -3 -9 8 4 8 0 5 -10 -6 -14 -17 -16 -17 -11 -2
7 19 -3 23 -19 7 -6 -6 -10 -2 -11 12 -2 19 0 20 8 8 9 -13 10 -13 6 0 -3 10
-14 14 -33 13 -27 -2 -27 -2 -6 7 27 12 29 20 2 15 -13 -2 -20 2 -20 11 0 8
-5 14 -11 14 -5 0 -8 -4 -5 -8 2 -4 0 -14 -5 -22 -7 -11 -8 -7 -5 12 3 15 0
30 -5 33 -5 4 -9 -1 -9 -9 0 -9 -4 -16 -10 -16 -5 0 -7 7 -4 15 4 8 1 15 -6
15 -6 0 -8 5 -4 13 5 8 2 8 -9 -2 -22 -18 -22 -3 0 23 10 12 4 8 -14 -7 -20
-19 -33 -25 -38 -18 -3 7 -1 10 6 9 6 -2 13 2 16 8 3 10 -2 12 -46 16 -11 1
-18 5 -16 9 5 7 -46 33 -59 30 -5 -1 -3 6 5 15 8 10 10 16 4 13 -11 -6 -56 37
-48 45 3 2 -3 3 -14 1 -10 -1 -27 3 -38 9 -11 7 -39 12 -63 12 -38 -1 -40 0
-25 13 17 13 16 13 -4 8 -15 -3 -20 -1 -16 9 3 8 -1 14 -11 14 -9 0 -13 -6
-10 -14 3 -8 0 -17 -7 -22 -8 -4 -10 -3 -5 5 4 6 2 19 -6 28 -8 10 -8 14 -1
10 6 -4 15 -2 19 4 4 7 3 9 -4 5 -6 -3 -15 2 -21 11 -6 10 -11 13 -11 5 0 -9
-7 -8 -27 4 l-28 16 25 -20 c13 -11 29 -18 35 -15 5 3 5 0 -2 -7 -9 -10 -15
-10 -27 3 -9 9 -25 19 -36 22 -18 6 -24 16 -21 37 1 9 -27 4 -36 -7 -4 -4 -3
-5 4 -1 6 3 15 1 19 -6 4 -7 4 -10 -1 -6 -4 4 -15 2 -23 -5 -13 -9 -14 -9 -8
1 4 7 2 12 -5 12 -9 0 -9 3 0 14 9 11 9 16 0 22 -8 4 -9 3 -5 -4 10 -16 -7
-15 -23 1 -11 10 -13 10 -7 0 4 -7 2 -13 -3 -13 -10 0 -15 13 -13 31 1 3 -5 6
-13 6 -8 0 -12 -4 -9 -9 3 -4 0 -8 -6 -8 -6 0 -8 -5 -4 -12 4 -7 3 -8 -4 -4
-6 4 -8 14 -5 23 5 12 3 14 -8 7 -8 -4 -23 -10 -34 -11 -16 -2 -17 -1 -5 6 8
5 19 7 25 3 5 -3 4 2 -4 11 -7 10 -19 17 -25 16 -36 -4 -106 2 -106 10 0 5 8
8 18 6 9 -1 11 0 4 2 -7 3 -9 10 -5 16 4 7 -2 5 -12 -3 -17 -14 -18 -13 -12 5
7 19 6 19 -7 3 -16 -22 -30 -24 -23 -4 4 10 1 13 -9 9 -7 -3 -14 -1 -14 5 0
16 -39 8 -53 -12 -11 -15 -16 -16 -22 -6 -5 8 -4 11 2 7 16 -10 23 31 7 44
-10 8 -12 7 -10 -8 3 -14 -3 -18 -27 -19 -29 -1 -29 -1 -7 11 l22 12 -21 6
c-11 3 -19 1 -15 -4 3 -5 0 -10 -5 -10 -34 -4 -46 -2 -44 9 2 7 -2 11 -9 9 -7
-1 -12 3 -13 10 0 6 -3 15 -7 19 -9 8 -2 -31 8 -49 5 -8 2 -8 -9 2 -9 7 -17
21 -17 29 0 13 -3 12 -14 -4 -16 -21 -26 -16 -29 13 0 11 -7 20 -14 20 -9 0
-10 -4 -2 -14 9 -10 8 -13 -5 -13 -9 0 -16 4 -16 9 0 5 -7 12 -16 15 -15 6
-15 4 -3 -10 13 -16 12 -16 -8 -6 -29 16 -70 15 -77 0 -3 -7 -3 -3 0 10 3 12
2 22 -3 21 -21 -4 -34 2 -27 13 4 7 3 8 -5 4 -6 -4 -9 -11 -6 -16 3 -5 1 -11
-5 -15 -5 -3 -10 1 -10 9 0 8 -5 18 -11 21 -6 4 -9 0 -7 -10 2 -10 -3 -20 -9
-22 -7 -3 -13 0 -13 7 0 6 4 8 10 5 6 -4 7 1 3 11 -4 11 -8 13 -11 6 -2 -7
-10 -12 -19 -12 -8 0 -22 -8 -31 -18 -10 -10 -12 -11 -7 -3 7 10 6 15 -2 18
-7 2 -11 10 -9 16 1 7 1 8 -2 4 -2 -4 -16 0 -30 9 l-27 17 23 -25 c16 -18 18
-25 8 -25 -8 0 -13 5 -9 10 3 5 -4 6 -18 2 -17 -4 -20 -3 -10 3 8 6 9 12 3 16
-6 3 -14 -3 -17 -15 -4 -12 -10 -18 -14 -13 -3 5 -13 11 -21 13 -8 2 -26 7
-40 11 -14 4 -33 6 -42 4 -10 -1 -18 2 -18 7 0 6 -6 7 -12 2 -22 -13 -50 -14
-42 -1 4 7 3 8 -5 4 -6 -4 -9 -11 -7 -15 3 -4 -5 -6 -17 -5 -12 1 -26 3 -30 3
-5 1 -6 5 -3 9 3 5 -1 9 -9 9 -10 0 -11 -5 -5 -17 6 -12 5 -17 -5 -17 -8 0
-12 4 -9 9 3 4 0 8 -6 8 -6 0 -8 5 -4 12 4 7 3 8 -5 4 -6 -4 -9 -11 -6 -16 3
-4 -4 -6 -15 -3 -12 3 -30 -2 -42 -13 l-22 -19 17 27 17 28 -36 -20 c-19 -11
-33 -16 -30 -11 3 5 -8 11 -24 13 -23 3 -27 2 -19 -8 7 -9 5 -16 -11 -24 -16
-9 -22 -8 -27 6 -3 9 0 20 7 24 8 5 9 10 2 14 -6 3 -13 -3 -17 -14z m362 -6
c-8 -8 -48 -13 -43 -6 2 4 14 8 26 9 12 1 20 0 17 -3z m-77 -18 c0 -2 -7 -7
-16 -10 -8 -3 -12 -2 -9 4 6 10 25 14 25 6z m165 -6 c-3 -5 -12 -10 -18 -10
-7 0 -6 4 3 10 19 12 23 12 15 0z m275 -4 c0 -2 -8 -10 -17 -17 -16 -13 -17
-12 -4 4 13 16 21 21 21 13z m-900 -16 c0 -5 -2 -10 -4 -10 -3 0 -8 5 -11 10
-3 6 -1 10 4 10 6 0 11 -4 11 -10z m985 -18 c-3 -3 -11 0 -18 7 -9 10 -8 11 6
5 10 -3 15 -9 12 -12z m-1279 -14 c5 -7 3 -8 -6 -3 -10 6 -12 4 -6 -11 5 -14
4 -16 -5 -7 -6 6 -8 16 -5 22 9 14 13 14 22 -1z m1605 -38 c10 -6 19 -16 19
-23 0 -8 -3 -9 -8 -1 -4 6 -16 16 -27 22 -25 14 -11 16 16 2z m-1853 -40 c-7
-11 -15 -15 -17 -9 -2 6 3 15 10 20 20 12 21 11 7 -11z m1907 10 c-3 -5 -12
-10 -18 -10 -7 0 -6 4 3 10 19 12 23 12 15 0z m102 -26 c-3 -3 -12 -4 -19 -1
-8 3 -5 6 6 6 11 1 17 -2 13 -5z m-2194 -38 c4 -10 1 -13 -8 -9 -8 3 -12 9 -9
14 7 12 11 11 17 -5z m2332 -16 c-3 -5 -12 -10 -18 -10 -7 0 -6 4 3 10 19 12
23 12 15 0z m-2345 -4 c0 -2 -8 -10 -17 -17 -16 -13 -17 -12 -4 4 13 16 21 21
21 13z m2454 -65 c-2 -3 -12 3 -22 13 -16 17 -16 18 5 5 12 -7 20 -15 17 -18z
m241 -82 c19 -4 45 -24 45 -35 0 -7 -7 -15 -16 -18 -13 -5 -14 -4 -6 7 15 17
3 30 -14 16 -9 -8 -11 -5 -8 13 2 13 2 17 -2 11 -4 -10 -9 -9 -21 2 -8 8 -19
13 -24 10 -5 -4 -9 1 -9 10 0 14 2 14 23 1 12 -8 27 -16 32 -17z m-3268 -144
c0 -8 -4 -12 -9 -9 -5 3 -6 10 -3 15 9 13 12 11 12 -6z m-143 -83 c3 -5 -1 -9
-9 -9 -8 0 -12 4 -9 9 3 4 7 8 9 8 2 0 6 -4 9 -8z m3831 -41 c18 -7 17 -8 -6
-13 -17 -3 -26 0 -26 9 0 15 3 15 32 4z m-4080 -201 c3 -6 -1 -7 -9 -4 -18 7
-21 14 -7 14 6 0 13 -4 16 -10z m4345 -45 c0 -19 -17 -28 -26 -14 -5 8 -3 9 6
4 10 -6 12 -3 8 13 -4 12 -2 20 3 16 5 -3 9 -11 9 -19z m-4536 -93 c3 -5 -1
-9 -9 -9 -8 0 -12 4 -9 9 3 4 7 8 9 8 2 0 6 -4 9 -8z m-91 -108 c-7 -3 -9 -13
-6 -22 4 -14 3 -14 -5 -2 -12 16 -7 30 11 29 9 0 9 -2 0 -5z m4904 -126 c-3
-8 -6 -5 -6 6 -1 11 2 17 5 13 3 -3 4 -12 1 -19z m66 -68 c-3 -12 -8 -19 -11
-16 -5 6 5 36 12 36 2 0 2 -9 -1 -20z m142 -180 c3 -5 -1 -10 -10 -10 -9 0
-13 5 -10 10 3 6 8 10 10 10 2 0 7 -4 10 -10z m55 -130 c0 -5 -5 -10 -11 -10
-5 0 -7 5 -4 10 3 6 8 10 11 10 2 0 4 -4 4 -10z m-5608 -112 c-7 -7 -12 -8
-12 -2 0 14 12 26 19 19 2 -3 -1 -11 -7 -17z m5659 -1 c-10 -9 -11 -8 -5 6 3
10 9 15 12 12 3 -3 0 -11 -7 -18z m104 -147 c3 -6 -1 -7 -9 -4 -18 7 -21 14
-7 14 6 0 13 -4 16 -10z m-5828 -46 c-3 -3 -12 -4 -19 -1 -8 3 -5 6 6 6 11 1
17 -2 13 -5z m5870 -46 c10 -17 14 -42 5 -33 -4 4 -8 11 -8 16 -1 5 -2 12 -3
15 0 4 -8 1 -16 -6 -13 -11 -14 -10 -9 4 7 19 20 21 31 4z m-5932 -96 c-3 -3
-11 0 -18 7 -9 10 -8 11 6 5 10 -3 15 -9 12 -12z m6009 -160 c3 -5 -1 -9 -9
-9 -8 0 -12 4 -9 9 3 4 7 8 9 8 2 0 6 -4 9 -8z m161 -991 c3 -5 2 -12 -3 -15
-5 -3 -9 1 -9 9 0 17 3 19 12 6z m-7 -116 c-3 -3 -9 2 -12 12 -6 14 -5 15 5 6
7 -7 10 -15 7 -18z m-3 -115 c3 -5 1 -10 -4 -10 -6 0 -11 5 -11 10 0 6 2 10 4
10 3 0 8 -4 11 -10z m-6340 -338 c-3 -3 -11 0 -18 7 -9 10 -8 11 6 5 10 -3 15
-9 12 -12z m6258 -129 c-3 -7 -6 -13 -8 -13 -2 0 -5 6 -8 13 -3 8 1 14 8 14 7
0 11 -6 8 -14z m3 -38 c-1 -8 -7 -20 -13 -26 -13 -13 -13 7 0 29 11 16 16 15
13 -3z m-20 -111 c-1 -18 -8 -28 -20 -30 -16 -2 -16 -1 -3 14 23 26 24 30 2
47 -20 16 -20 16 1 6 14 -7 21 -19 20 -37z m-31 -113 c3 -5 2 -12 -3 -15 -5
-3 -9 1 -9 9 0 17 3 19 12 6z m-55 -126 c-9 -11 -9 -15 -1 -15 7 0 9 -4 6 -10
-3 -5 -11 -10 -17 -10 -6 0 -8 3 -5 7 4 3 -1 12 -11 20 -15 11 -15 12 -1 7 10
-3 20 -1 24 5 3 6 9 11 12 11 3 0 0 -7 -7 -15z m-6001 -51 c2 -2 -6 -2 -18 -1
-11 1 -23 7 -26 14 -4 11 0 11 18 2 12 -6 24 -13 26 -15z m5841 -328 c0 -3 -4
-8 -10 -11 -5 -3 -10 -1 -10 4 0 6 5 11 10 11 6 0 10 -2 10 -4z m-5686 -33 c4
-11 1 -11 -14 -3 -24 13 -25 17 -5 17 8 0 16 -6 19 -14z m6 -34 c0 -5 5 -7 12
-3 7 4 8 3 4 -5 -6 -9 -11 -9 -22 0 -17 14 -18 19 -4 19 6 0 10 -5 10 -11z
m5557 -95 c-3 -4 -2 -15 3 -25 7 -12 6 -20 -2 -25 -7 -4 -10 -4 -6 1 4 4 3 15
-2 25 -8 16 -4 30 8 30 3 0 2 -3 -1 -6z m-52 -124 c-3 -5 -11 -10 -16 -10 -6
0 -7 5 -4 10 3 6 11 10 16 10 6 0 7 -4 4 -10z m-5285 -120 c0 -5 -5 -10 -11
-10 -5 0 -7 5 -4 10 3 6 8 10 11 10 2 0 4 -4 4 -10z m5000 -259 c-14 -28 -30
-35 -43 -22 -9 9 -7 10 7 5 13 -5 17 -4 12 4 -3 6 2 15 11 21 25 14 25 14 13
-8z m-4770 -26 c0 -7 -30 -13 -34 -7 -3 4 4 9 15 9 10 1 19 0 19 -2z m41 -48
c-6 -8 -7 -18 -3 -22 4 -5 1 -5 -6 -1 -10 6 -10 11 -1 22 6 8 14 14 16 14 3 0
0 -6 -6 -13z m69 -85 c0 -5 -7 -9 -15 -9 -8 0 -12 4 -9 9 3 4 9 8 15 8 5 0 9
-4 9 -8z m37 -37 c0 -17 -13 -20 -21 -6 -4 5 0 12 6 14 7 3 13 6 14 6 0 1 1
-6 1 -14z m325 -273 c-4 -11 -1 -13 8 -7 9 5 11 4 6 -4 -6 -9 -11 -9 -22 0
-18 15 -18 26 0 26 8 0 12 -6 8 -15z m83 -32 c4 -6 3 -10 -2 -9 -4 1 -10 0
-13 -1 -19 -7 -39 -7 -34 1 3 5 9 7 14 4 5 -3 11 -1 15 5 8 13 12 13 20 0z
m95 -100 c0 -5 -2 -10 -4 -10 -3 0 -8 5 -11 10 -3 6 -1 10 4 10 6 0 11 -4 11
-10z m3320 -44 c-7 -7 -14 -6 -22 3 -11 10 -9 11 7 5 18 -7 19 -6 5 12 -14 18
-14 18 3 5 12 -10 15 -17 7 -25z m-3090 -76 c0 -5 -2 -10 -4 -10 -3 0 -8 5
-11 10 -3 6 -1 10 4 10 6 0 11 -4 11 -10z m2750 -99 c0 -6 -4 -13 -10 -16 -5
-3 -10 1 -10 9 0 9 5 16 10 16 6 0 10 -4 10 -9z m-2440 -35 c0 -3 -4 -8 -10
-11 -5 -3 -10 -1 -10 4 0 6 5 11 10 11 6 0 10 -2 10 -4z m2266 -53 c-7 -7 -26
7 -26 19 0 6 6 6 15 -2 9 -7 13 -15 11 -17z m-2126 7 c0 -5 -2 -10 -4 -10 -3
0 -8 5 -11 10 -3 6 -1 10 4 10 6 0 11 -4 11 -10z m47 -29 c0 -11 -5 -18 -9
-15 -4 3 -5 11 -1 19 7 21 12 19 10 -4z m1913 -12 c0 -5 5 -7 11 -3 7 4 10 1
7 -6 -2 -8 -11 -16 -19 -18 -8 -3 -11 -1 -7 3 4 5 3 14 -3 22 -9 9 -8 13 0 13
6 0 11 -5 11 -11z m-63 -14 c0 -8 -4 -15 -9 -15 -10 0 -11 14 -1 23 9 10 10 9
10 -8z m-1437 -75 c0 -5 -5 -10 -11 -10 -5 0 -7 5 -4 10 3 6 8 10 11 10 2 0 4
-4 4 -10z m185 -50 l20 -25 -22 19 c-13 11 -23 24 -23 29 0 6 1 8 3 6 1 -2 11
-15 22 -29z m699 12 c2 -4 -4 -8 -14 -8 -10 0 -16 4 -14 8 3 4 9 8 14 8 5 0
11 -4 14 -8z m-651 -10 c4 9 6 9 6 1 2 -20 -16 -24 -30 -5 -13 15 -12 16 3 4
13 -10 17 -10 21 0z"/>
<path d="M3185 6550 c-3 -6 1 -7 9 -4 18 7 21 14 7 14 -6 0 -13 -4 -16 -10z"/>
<path d="M2830 6535 c0 -5 5 -17 10 -25 5 -8 10 -10 10 -5 0 6 -5 17 -10 25
-5 8 -10 11 -10 5z"/>
<path d="M2910 6536 c0 -2 8 -10 18 -17 15 -13 16 -12 3 4 -13 16 -21 21 -21
13z"/>
<path d="M3100 6520 c0 -5 7 -7 15 -4 8 4 15 8 15 10 0 2 -7 4 -15 4 -8 0 -15
-4 -15 -10z"/>
<path d="M2691 6496 c-8 -10 -9 -16 -1 -21 5 -3 10 -5 11 -3 4 18 7 38 4 38
-1 0 -8 -6 -14 -14z"/>
<path d="M4067 6467 c-3 -8 1 -14 9 -14 16 0 19 13 5 21 -5 3 -11 0 -14 -7z"/>
<path d="M2456 6423 c-6 -14 -5 -15 5 -6 7 7 10 15 7 18 -3 3 -9 -2 -12 -12z"/>
<path d="M1693 6127 c-3 -7 -3 -9 2 -5 4 4 14 3 21 -3 8 -7 14 -7 19 1 3 5 5
10 3 11 -27 6 -39 5 -45 -4z"/>
<path d="M4955 6119 c-8 -12 -9 -12 32 -33 29 -14 32 -14 26 -1 -3 9 -8 14
-11 11 -8 -9 -43 14 -37 25 4 5 4 9 1 9 -3 0 -8 -5 -11 -11z"/>
<path d="M1596 6062 c-3 -5 1 -9 9 -9 8 0 12 4 9 9 -3 4 -7 8 -9 8 -2 0 -6 -4
-9 -8z"/>
<path d="M1503 5993 c1 -17 4 -19 14 -11 15 12 18 22 4 14 -5 -4 -11 0 -14 6
-3 7 -4 3 -4 -9z"/>
<path d="M1466 5992 c-3 -5 1 -9 9 -9 8 0 12 4 9 9 -3 4 -7 8 -9 8 -2 0 -6 -4
-9 -8z"/>
<path d="M5228 5943 c7 -3 16 -2 19 1 4 3 -2 6 -13 5 -11 0 -14 -3 -6 -6z"/>
<path d="M1254 5832 c5 -8 1 -21 -9 -32 -22 -24 -6 -33 21 -11 20 16 20 16 1
36 -11 11 -17 14 -13 7z m16 -26 c0 -2 -8 -10 -17 -17 -16 -13 -17 -12 -4 4
13 16 21 21 21 13z"/>
<path d="M5506 5688 c3 -5 10 -6 15 -3 13 9 11 12 -6 12 -8 0 -12 -4 -9 -9z"/>
<path d="M1116 5678 c3 -5 10 -6 15 -3 13 9 11 12 -6 12 -8 0 -12 -4 -9 -9z"/>
<path d="M5710 5509 c0 -5 5 -7 10 -4 6 3 10 8 10 11 0 2 -4 4 -10 4 -5 0 -10
-5 -10 -11z"/>
<path d="M5809 5393 c0 -5 -2 -16 -4 -26 -2 -11 -1 -16 3 -13 8 8 14 46 7 46
-3 0 -5 -3 -6 -7z"/>
<path d="M746 5292 c-2 -4 4 -8 14 -8 10 0 16 4 14 8 -3 4 -9 8 -14 8 -5 0
-11 -4 -14 -8z"/>
<path d="M675 5170 c4 -6 11 -8 16 -5 14 9 11 15 -7 15 -8 0 -12 -5 -9 -10z"/>
<path d="M600 5086 c0 -2 7 -7 16 -10 8 -3 12 -2 9 4 -6 10 -25 14 -25 6z"/>
<path d="M519 4946 c13 -15 13 -19 1 -26 -8 -5 -12 -11 -9 -15 3 -3 13 3 22
13 15 16 15 19 -6 31 -20 13 -21 13 -8 -3z"/>
<path d="M497 4885 c3 -8 9 -12 14 -9 12 7 11 11 -5 17 -10 4 -13 1 -9 -8z"/>
<path d="M420 4755 c-9 -10 -9 -15 -1 -15 6 0 11 5 11 11 0 5 5 7 12 3 7 -4 8
-3 4 4 -9 15 -11 15 -26 -3z"/>
<path d="M365 4618 c4 -11 2 -18 -4 -18 -6 0 -11 -5 -11 -12 0 -8 6 -6 17 5
14 14 15 19 4 29 -10 11 -11 10 -6 -4z"/>
<path d="M300 4501 c0 -6 4 -13 10 -16 6 -3 7 1 4 9 -7 18 -14 21 -14 7z"/>
<path d="M275 4410 c-3 -5 -1 -10 4 -10 6 0 11 5 11 10 0 6 -2 10 -4 10 -3 0
-8 -4 -11 -10z"/>
<path d="M6356 4388 c3 -4 11 -5 19 -1 21 7 19 12 -4 10 -11 0 -18 -5 -15 -9z"/>
<path d="M6385 4310 c-3 -6 1 -7 9 -4 18 7 21 14 7 14 -6 0 -13 -4 -16 -10z"/>
<path d="M6385 4281 c-3 -5 0 -13 6 -17 7 -4 9 -3 5 4 -3 5 0 13 6 15 9 4 10
6 1 6 -6 1 -14 -3 -18 -8z"/>
<path d="M6421 4187 c-13 -21 -12 -21 5 -5 10 10 16 20 13 22 -3 3 -11 -5 -18
-17z"/>
<path d="M195 4170 c-3 -5 -1 -10 4 -10 6 0 11 5 11 10 0 6 -2 10 -4 10 -3 0
-8 -4 -11 -10z"/>
<path d="M6448 4033 c7 -3 16 -2 19 1 4 3 -2 6 -13 5 -11 0 -14 -3 -6 -6z"/>
<path d="M6503 3774 c4 -4 1 -14 -6 -23 -11 -14 -10 -15 8 -1 11 8 21 15 23
16 2 1 -5 5 -15 8 -9 4 -14 4 -10 0z"/>
<path d="M6523 3626 c0 -8 6 -12 14 -9 7 3 10 9 7 14 -8 14 -21 11 -21 -5z"/>
<path d="M107 3569 c7 -7 15 -10 18 -7 3 3 -2 9 -12 12 -14 6 -15 5 -6 -5z"/>
<path d="M103 3535 c0 -8 4 -15 9 -15 4 0 8 4 8 9 0 6 -4 12 -8 15 -5 3 -9 -1
-9 -9z"/>
<path d="M6520 3486 c0 -2 7 -7 16 -10 8 -3 12 -2 9 4 -6 10 -25 14 -25 6z"/>
<path d="M100 3171 c-10 -20 4 -41 17 -27 4 3 1 6 -6 6 -9 0 -9 5 -1 20 6 11
8 20 6 20 -3 0 -10 -9 -16 -19z"/>
<path d="M6526 3155 c4 -8 11 -15 16 -15 6 0 5 6 -2 15 -7 8 -14 15 -16 15 -2
0 -1 -7 2 -15z"/>
<path d="M94 3060 c0 -13 4 -16 10 -10 7 7 7 13 0 20 -6 6 -10 3 -10 -10z"/>
<path d="M6513 3015 c0 -7 6 -11 14 -8 7 3 13 6 13 8 0 2 -6 5 -13 8 -8 3 -14
-1 -14 -8z"/>
<path d="M110 2989 c0 -5 5 -7 10 -4 6 3 10 8 10 11 0 2 -4 4 -10 4 -5 0 -10
-5 -10 -11z"/>
<path d="M6510 2911 c-7 -14 -7 -22 0 -26 6 -4 7 -11 4 -17 -5 -7 -2 -8 5 -3
9 5 10 10 2 18 -7 7 -7 16 0 29 5 10 7 18 5 18 -3 0 -10 -9 -16 -19z"/>
<path d="M135 2819 c-4 -6 -5 -12 -2 -15 2 -3 7 2 10 11 7 17 1 20 -8 4z"/>
<path d="M116 2772 c-3 -5 1 -9 9 -9 8 0 12 4 9 9 -3 4 -7 8 -9 8 -2 0 -6 -4
-9 -8z"/>
<path d="M6350 2333 c0 -6 8 -17 18 -24 16 -13 16 -13 2 6 -8 11 -16 22 -17
24 -2 2 -3 0 -3 -6z"/>
<path d="M253 2295 c0 -8 4 -12 9 -9 5 3 6 10 3 15 -9 13 -12 11 -12 -6z"/>
<path d="M305 2160 c10 -11 20 -20 22 -20 2 0 -2 9 -9 20 -7 11 -17 20 -22 20
-5 0 -1 -9 9 -20z"/>
<path d="M6194 1946 c-10 -8 -17 -16 -14 -19 3 -2 14 4 24 14 23 22 18 25 -10
5z"/>
<path d="M410 1909 c0 -5 5 -7 10 -4 6 3 10 8 10 11 0 2 -4 4 -10 4 -5 0 -10
-5 -10 -11z"/>
<path d="M6131 1813 c-8 -18 -7 -21 5 -16 8 3 12 8 9 11 -3 3 7 11 22 18 l28
11 -27 -1 c-17 -1 -31 -9 -37 -23z"/>
<path d="M596 1582 c-3 -5 1 -9 9 -9 8 0 12 4 9 9 -3 4 -7 8 -9 8 -2 0 -6 -4
-9 -8z"/>
<path d="M5937 1485 c-4 -8 -3 -16 1 -19 4 -3 9 4 9 15 2 23 -3 25 -10 4z"/>
<path d="M5815 1340 c-10 -11 -21 -17 -26 -14 -4 2 -6 -5 -4 -17 5 -25 14 -37
16 -21 1 7 2 17 3 23 0 6 10 17 20 25 11 7 17 16 14 19 -2 3 -13 -4 -23 -15z"/>
<path d="M780 1296 c0 -2 7 -9 15 -16 9 -7 15 -8 15 -2 0 5 -7 12 -15 16 -8 3
-15 4 -15 2z"/>
<path d="M5755 1277 c-12 -9 -14 -16 -7 -21 6 -4 9 -13 6 -20 -3 -8 0 -17 7
-22 8 -4 10 -3 5 4 -4 7 -4 18 0 24 7 11 14 48 9 48 -1 0 -9 -6 -20 -13z"/>
<path d="M5730 1189 c0 -5 5 -7 10 -4 6 3 10 8 10 11 0 2 -4 4 -10 4 -5 0 -10
-5 -10 -11z"/>
<path d="M5476 963 c-6 -14 -5 -15 5 -6 7 7 10 15 7 18 -3 3 -9 -2 -12 -12z"/>
<path d="M5425 940 c-3 -5 -5 -10 -3 -11 33 -8 38 -7 27 7 -14 17 -16 17 -24
4z"/>
<path d="M1264 828 c-4 -6 -3 -8 4 -4 6 3 15 -2 21 -11 12 -20 14 -13 5 11 -7
19 -20 21 -30 4z"/>
<path d="M1307 797 c-3 -7 3 -13 14 -13 13 0 15 3 7 13 -6 7 -12 13 -13 13 -2
0 -5 -6 -8 -13z"/>
<path d="M5070 649 c0 -5 5 -7 10 -4 6 3 10 8 10 11 0 2 -4 4 -10 4 -5 0 -10
-5 -10 -11z"/>
<path d="M1607 586 c-4 -11 -1 -13 11 -9 15 6 16 5 2 -12 -14 -17 -14 -18 8
-6 13 7 22 14 20 15 -1 1 -10 7 -19 14 -14 10 -18 10 -22 -2z"/>
<path d="M1690 530 c0 -5 5 -10 11 -10 5 0 7 5 4 10 -3 6 -8 10 -11 10 -2 0
-4 -4 -4 -10z"/>
<path d="M1750 516 c0 -4 7 -14 15 -22 8 -9 15 -11 15 -6 0 5 -7 15 -15 22 -8
7 -15 9 -15 6z"/>
<path d="M4810 489 c0 -5 5 -7 10 -4 6 3 10 8 10 11 0 2 -4 4 -10 4 -5 0 -10
-5 -10 -11z"/>
<path d="M4615 410 c-3 -5 -1 -10 4 -10 6 0 11 5 11 10 0 6 -2 10 -4 10 -3 0
-8 -4 -11 -10z"/>
<path d="M4480 310 c-9 -6 -10 -10 -3 -10 6 0 15 5 18 10 8 12 4 12 -15 0z"/>
<path d="M4344 292 c3 -5 0 -12 -6 -15 -7 -2 -10 -7 -7 -11 3 -4 12 0 18 8 9
11 9 16 0 22 -7 4 -9 3 -5 -4z"/>
<path d="M4300 270 c0 -5 5 -10 11 -10 5 0 7 5 4 10 -3 6 -8 10 -11 10 -2 0
-4 -4 -4 -10z"/>
<path d="M4270 256 c0 -2 7 -7 16 -10 8 -3 12 -2 9 4 -6 10 -25 14 -25 6z"/>
<path d="M3890 171 c0 -6 4 -13 10 -16 6 -3 7 1 4 9 -7 18 -14 21 -14 7z"/>
<path d="M3795 159 c-10 -15 3 -25 16 -12 7 7 7 13 1 17 -6 3 -14 1 -17 -5z"/>
<path d="M2750 150 c0 -5 5 -10 11 -10 5 0 7 5 4 10 -3 6 -8 10 -11 10 -2 0
-4 -4 -4 -10z"/>
<path d="M3644 132 c4 -3 14 -7 22 -8 9 -1 13 0 10 4 -4 3 -14 7 -22 8 -9 1
-13 0 -10 -4z"/>
<path d="M3113 115 c0 -6 10 -11 21 -12 12 -1 15 1 8 4 -6 3 -10 8 -8 12 3 4
-1 8 -8 8 -7 0 -13 -5 -13 -12z"/>
<path d="M3193 105 c0 -8 4 -12 9 -9 5 3 6 10 3 15 -9 13 -12 11 -12 -6z"/>
<path d="M3300 111 c0 -5 7 -12 16 -15 14 -5 15 -4 4 9 -14 17 -20 19 -20 6z"/>
<path d="M3445 109 c-4 -6 -5 -12 -2 -15 2 -3 7 2 10 11 7 17 1 20 -8 4z"/>
</g>
</svg>
